<?xml version="1.0" encoding="iso-8859-1"?>
<!-- Uploaded to: SVG Repo, www.svgrepo.com, Generator: SVG Repo Mixer Tools -->
<svg version="1.1" id="Capa_1" xmlns="http://www.w3.org/2000/svg" xmlns:xlink="http://www.w3.org/1999/xlink" 
	 viewBox="0 0 410 410" xml:space="preserve">
<g id="XMLID_1835_">
	<path id="XMLID_1850_" style="fill:#FFDA44;" d="M75,232.5c13.326,0,25.294,5.797,33.534,15.002H170V247.5v-30v-100h-40H70l-30,70
		H0v30h30v30H0v0.002h41.466C49.706,238.297,61.674,232.5,75,232.5z M89.782,147.5H155v40H72.639L89.782,147.5z"/>
	<rect id="XMLID_1853_" x="170" y="247.5" style="fill:#FF9811;" width="30" height="0.002"/>
	<path id="XMLID_1854_" style="fill:#FF9811;" d="M320,187.5l-50-70h-60h-40v100h30v30h30v-30h30v30h-30v0.002h71.466
		c8.24-9.205,20.208-15.002,33.534-15.002s25.294,5.797,33.534,15.002H410V247.5h-20l-10-30h30v-10L320,187.5z M185,187.5v-40
		h69.561l28.571,40H185z"/>
	<path id="XMLID_1857_" style="fill:#ACABB1;" d="M0,247.502V277.5h30c0-11.527,4.339-22.037,11.466-29.998H0z"/>
	<path id="XMLID_1858_" style="fill:#ACABB1;" d="M170,247.502h-61.466C115.661,255.463,120,265.973,120,277.5h80v-29.998H170z"/>
	<path id="XMLID_1859_" style="fill:#ACABB1;" d="M230,247.502V277.5h60c0-11.527,4.339-22.037,11.466-29.998H230z"/>
	<path id="XMLID_1860_" style="fill:#ACABB1;" d="M380,277.5h30v-29.998h-41.466C375.661,255.463,380,265.973,380,277.5z"/>
	<path id="XMLID_1861_" style="fill:#616064;" d="M52.5,277.5c0-12.427,10.073-22.5,22.5-22.5v-22.5
		c-13.326,0-25.294,5.797-33.534,15.002C34.339,255.463,30,265.973,30,277.5c0,24.853,20.147,45,45,45V300
		C62.573,300,52.5,289.927,52.5,277.5z"/>
	<path id="XMLID_1862_" style="fill:#565659;" d="M75,232.5V255c12.427,0,22.5,10.073,22.5,22.5S87.427,300,75,300v22.5
		c24.852,0,45-20.147,45-45c0-11.527-4.339-22.037-11.466-29.998C100.294,238.297,88.326,232.5,75,232.5z"/>
	<path id="XMLID_1863_" style="fill:#CDCDD0;" d="M52.5,277.5c0,12.427,10.073,22.5,22.5,22.5v-45
		C62.573,255,52.5,265.073,52.5,277.5z"/>
	<path id="XMLID_1864_" style="fill:#ACABB1;" d="M75,300c12.427,0,22.5-10.073,22.5-22.5S87.427,255,75,255V300z"/>
	<path id="XMLID_1865_" style="fill:#616064;" d="M312.5,277.5c0-12.427,10.073-22.5,22.5-22.5v-22.5
		c-13.326,0-25.294,5.797-33.534,15.002C294.339,255.463,290,265.973,290,277.5c0,24.853,20.147,45,45,45V300
		C322.573,300,312.5,289.927,312.5,277.5z"/>
	<path id="XMLID_1866_" style="fill:#565659;" d="M335,232.5V255c12.427,0,22.5,10.073,22.5,22.5S347.427,300,335,300v22.5
		c24.852,0,45-20.147,45-45c0-11.527-4.339-22.037-11.466-29.998C360.294,238.297,348.326,232.5,335,232.5z"/>
	<path id="XMLID_1867_" style="fill:#CDCDD0;" d="M312.5,277.5c0,12.427,10.073,22.5,22.5,22.5v-45
		C322.573,255,312.5,265.073,312.5,277.5z"/>
	<path id="XMLID_1868_" style="fill:#ACABB1;" d="M335,300c12.427,0,22.5-10.073,22.5-22.5S347.427,255,335,255V300z"/>
	<polygon id="XMLID_1869_" style="fill:#FFFFFF;" points="155,147.5 89.782,147.5 72.639,187.5 155,187.5 	"/>
	<polygon id="XMLID_1870_" style="fill:#FFFFFF;" points="185,147.5 185,187.5 283.133,187.5 254.561,147.5 	"/>
	<rect id="XMLID_1871_" y="217.5" style="fill:#FF5023;" width="30" height="30"/>
	<polygon id="XMLID_1872_" style="fill:#FF5023;" points="390,247.5 410,247.5 410,217.5 380,217.5 	"/>
	<polygon id="XMLID_1873_" style="fill:#565659;" points="210,117.5 210,87.5 130,87.5 130,117.5 170,117.5 	"/>
	<rect id="XMLID_1874_" x="170" y="217.5" style="fill:#565659;" width="30" height="30"/>
	<polygon id="XMLID_1875_" style="fill:#565659;" points="230,247.5 200,247.5 200,247.502 200,277.5 230,277.5 230,247.502 	"/>
	<rect id="XMLID_1876_" x="230" y="217.5" style="fill:#565659;" width="30" height="30"/>
</g>
</svg>